<?xml version="1.0" encoding="UTF-8"?>
<svg version="1.1" xmlns="http://www.w3.org/2000/svg" width="55" height="55">
<path d="M0 0 C3.47263143 0.56373887 4.91317065 1.60850967 7.125 4.3125 C7.87136719 5.20388672 7.87136719 5.20388672 8.6328125 6.11328125 C12.22213061 11.06654024 13.40060378 16.24195505 12.75390625 22.30859375 C11.72423674 27.71208066 9.95934407 32.04065593 6 36 C12.27 36.33 18.54 36.66 25 37 C25 33.04 25 29.08 25 25 C25.66 25 26.32 25 27 25 C27 28.96 27 32.92 27 37 C30.96 37 34.92 37 39 37 C39 37.66 39 38.32 39 39 C35.04 39 31.08 39 27 39 C27 42.96 27 46.92 27 51 C26.34 51 25.68 51 25 51 C25 47.04 25 43.08 25 39 C16.42 39 7.84 39 -1 39 C-1 38.34 -1 37.68 -1 37 C0.42578125 35.703125 0.42578125 35.703125 2.3125 34.25 C6.40778949 30.79304511 8.63794893 27.94619061 9.3125 22.45703125 C9.59111362 16.14469149 8.80847945 11.14692271 5 6 C2.3908613 3.67722584 2.3908613 3.67722584 0 2 C0 1.34 0 0.68 0 0 Z " fill="#000000" transform="translate(8,2)"/>
</svg>
