<?xml version="1.0" encoding="UTF-8" standalone="no"?>
<svg
   version="1.1"
   width="60"
   height="60"
   id="svg1"
   sodipodi:docname="mars.svg"
   inkscape:version="1.4 (e7c3feb100, 2024-10-09)"
   xmlns:inkscape="http://www.inkscape.org/namespaces/inkscape"
   xmlns:sodipodi="http://sodipodi.sourceforge.net/DTD/sodipodi-0.dtd"
   xmlns="http://www.w3.org/2000/svg"
   xmlns:svg="http://www.w3.org/2000/svg">
  <defs
     id="defs1" />
  <sodipodi:namedview
     id="namedview1"
     pagecolor="#ffffff"
     bordercolor="#000000"
     borderopacity="0.25"
     inkscape:showpageshadow="2"
     inkscape:pageopacity="0.0"
     inkscape:pagecheckerboard="0"
     inkscape:deskcolor="#d1d1d1"
     inkscape:zoom="13.5"
     inkscape:cx="30"
     inkscape:cy="30"
     inkscape:window-width="1142"
     inkscape:window-height="1080"
     inkscape:window-x="0"
     inkscape:window-y="0"
     inkscape:window-maximized="0"
     inkscape:current-layer="svg1" />
  <path
     d="M0 0 C3.96 0 7.92 0 12 0 C12 3.96 12 7.92 12 12 C10.68 12 9.36 12 8 12 C7.505 10.02 7.505 10.02 7 8 C4.03 10.97 1.06 13.94 -2 17 C-1.34 18.65 -0.68 20.3 0 22 C2.72738642 28.81846605 2.99768994 35.2623635 0.17578125 42.04296875 C-2.66630101 46.77347776 -7.00056428 50.00028214 -11.875 52.4375 C-19.08564303 53.73541574 -26.59219617 54.00653573 -33 50 C-38.72796356 44.78043558 -41.98329509 39.98598859 -42.375 32.1875 C-42.22136952 26.10554056 -40.50529581 21.7297412 -36.38671875 17.2421875 C-30.91926011 12.22327868 -25.67021713 10.60242045 -18.30859375 10.7265625 C-15.87492854 11.01481388 -13.95310226 11.6427583 -11.6875 12.5625 C-7.71028811 14.20637128 -7.71028811 14.20637128 -4 13 C-1.79850515 11.1605397 -1.79850515 11.1605397 0.25 8.9375 C0.95640625 8.20402344 1.6628125 7.47054688 2.390625 6.71484375 C2.92171875 6.14894531 3.4528125 5.58304688 4 5 C2.68 4.67 1.36 4.34 0 4 C0 2.68 0 1.36 0 0 Z M-34.375 19.4375 C-38.06692272 25.25937813 -38.68315075 30.1791667 -38 37 C-36.12040686 43.03448322 -33.25677296 47.10021577 -27.75 50.3125 C-21.16762772 51.95809307 -15.66581288 51.56661366 -9.72265625 48.19921875 C-5.24174637 45.07985518 -3.2285623 41.22138978 -2 36 C-1.43423278 28.87133305 -2.59034455 23.94513444 -7.25 18.25 C-11.38832112 14.8641009 -15.13210939 13.23773153 -20.4375 12.5625 C-26.15792367 13.26500817 -30.35023247 15.30681753 -34.375 19.4375 Z "
     fill="#000000"
     transform="translate(45,3)"
     id="path1"
     style="fill:#ffffff" />
</svg>
