<?xml version="1.0" encoding="UTF-8"?>
<svg version="1.1" xmlns="http://www.w3.org/2000/svg" width="55" height="55">
<path d="M0 0 C3 1 3 1 4.5625 4 C5.036875 4.99 5.51125 5.98 6 7 C9.09173752 8.54586876 11.59429552 8.29359521 15 8 C17.59653964 6.08676027 18.73151664 4.80545009 19.75 1.75 C19.8325 1.1725 19.915 0.595 20 0 C20.66 0 21.32 0 22 0 C21.56179109 4.55737263 21.14958831 7.57653445 18 11 C18.66 11.639375 19.32 12.27875 20 12.9375 C22.67487721 17.03340572 22.97246571 20.22988803 22 25 C20.6192834 27.72182248 19.36252398 28.89997868 17 31 C14.1875 31.875 14.1875 31.875 12 32 C12 34.64 12 37.28 12 40 C15.3 40 18.6 40 22 40 C22 40.66 22 41.32 22 42 C18.7 42 15.4 42 12 42 C12 44.97 12 47.94 12 51 C11.34 51 10.68 51 10 51 C10 48.03 10 45.06 10 42 C7.03 42 4.06 42 1 42 C1 41.34 1 40.68 1 40 C3.97 40 6.94 40 10 40 C9.88099133 35.91625577 9.88099133 35.91625577 9 32 C6.13343033 30.31668061 6.13343033 30.31668061 3 29 C0.53893527 25.58626505 -0.2450399 23.00372317 0.0625 18.875 C1.02809807 14.8838613 1.81145655 13.46854977 5 11 C4.360625 10.29875 3.72125 9.5975 3.0625 8.875 C0.83613898 5.77158767 0.34919057 3.75379861 0 0 Z M3 17 C2.16666667 20.5 2.16666667 20.5 3 24 C5.59216083 27.69186542 7.04149064 28.82883761 11.5 29.625 C15.95850936 28.82883761 17.40783917 27.69186542 20 24 C20.83333333 20.5 20.83333333 20.5 20 17 C17.40783917 13.30813458 15.95850936 12.17116239 11.5 11.375 C7.04149064 12.17116239 5.59216083 13.30813458 3 17 Z " fill="#000000" transform="translate(16,2)"/>
</svg>
