<?xml version="1.0" encoding="UTF-8" standalone="no"?>
<svg
   version="1.1"
   width="55"
   height="55"
   id="svg1"
   sodipodi:docname="moon.svg"
   inkscape:version="1.4 (e7c3feb100, 2024-10-09)"
   xmlns:inkscape="http://www.inkscape.org/namespaces/inkscape"
   xmlns:sodipodi="http://sodipodi.sourceforge.net/DTD/sodipodi-0.dtd"
   xmlns="http://www.w3.org/2000/svg"
   xmlns:svg="http://www.w3.org/2000/svg">
  <defs
     id="defs1" />
  <sodipodi:namedview
     id="namedview1"
     pagecolor="#ffffff"
     bordercolor="#000000"
     borderopacity="0.25"
     inkscape:showpageshadow="2"
     inkscape:pageopacity="0.0"
     inkscape:pagecheckerboard="0"
     inkscape:deskcolor="#d1d1d1"
     inkscape:zoom="14.727273"
     inkscape:cx="27.5"
     inkscape:cy="27.5"
     inkscape:window-width="1920"
     inkscape:window-height="1018"
     inkscape:window-x="0"
     inkscape:window-y="0"
     inkscape:window-maximized="1"
     inkscape:current-layer="svg1" />
  <path
     d="M0 0 C0 0.66 0 1.32 0 2 C-4.47058824 6 -4.47058824 6 -7 6 C-7.42925781 6.87011719 -7.42925781 6.87011719 -7.8671875 7.7578125 C-8.56805523 9.14504726 -9.29737563 10.51877938 -10.0703125 11.8671875 C-13.88993037 19.13860819 -14.65464766 27.59706886 -12.234375 35.5 C-11.29045219 37.47774304 -10.26505085 39.2132787 -9 41 C-8.360625 41.9075 -7.72125 42.815 -7.0625 43.75 C-5.0023787 46.11503125 -5.0023787 46.11503125 -2.25 48.1875 C-1.5075 48.785625 -0.765 49.38375 0 50 C0 50.66 0 51.32 0 52 C-9.12927698 51.57734829 -15.06878057 49.37435917 -21.375 42.625 C-26.81717742 36.48899916 -27.52542017 30.29081795 -27.37109375 22.3203125 C-26.56371616 15.09640774 -23.31781488 9.9022707 -18.0625 5 C-12.2054844 0.34723059 -7.27073542 -0.25071501 0 0 Z M-17.875 8.8359375 C-23.29345875 14.72851139 -25.46631986 19.65482401 -25.25 27.69921875 C-24.55963715 34.05271435 -21.8655682 39.76493331 -17 44 C-14.1236079 45.93421167 -11.22992716 47.72452778 -8 49 C-7.01 48.505 -7.01 48.505 -6 48 C-6.39832031 47.57589844 -6.79664062 47.15179688 -7.20703125 46.71484375 C-13.69244827 39.53512418 -15.97278115 32.63547379 -16 23 C-15.45139005 15.70110238 -12.21519455 10.81279016 -8 5 C-7.67 4.34 -7.34 3.68 -7 3 C-11.76813656 3 -14.59913531 5.62831999 -17.875 8.8359375 Z "
     fill="#000000"
     transform="translate(41,2)"
     id="path1"
     style="fill:#ffffff" />
</svg>
