<?xml version="1.0" encoding="UTF-8" standalone="no"?>
<svg
   version="1.1"
   width="60"
   height="60"
   id="svg1"
   sodipodi:docname="saturn.svg"
   inkscape:version="1.4 (e7c3feb100, 2024-10-09)"
   xmlns:inkscape="http://www.inkscape.org/namespaces/inkscape"
   xmlns:sodipodi="http://sodipodi.sourceforge.net/DTD/sodipodi-0.dtd"
   xmlns="http://www.w3.org/2000/svg"
   xmlns:svg="http://www.w3.org/2000/svg">
  <defs
     id="defs1" />
  <sodipodi:namedview
     id="namedview1"
     pagecolor="#ffffff"
     bordercolor="#000000"
     borderopacity="0.25"
     inkscape:showpageshadow="2"
     inkscape:pageopacity="0.0"
     inkscape:pagecheckerboard="0"
     inkscape:deskcolor="#d1d1d1"
     inkscape:zoom="13.5"
     inkscape:cx="30"
     inkscape:cy="30"
     inkscape:window-width="1920"
     inkscape:window-height="1018"
     inkscape:window-x="0"
     inkscape:window-y="0"
     inkscape:window-maximized="1"
     inkscape:current-layer="svg1" />
  <path
     d="M0 0 C1.32 0 2.64 0 4 0 C4 2.64 4 5.28 4 8 C6.64 8 9.28 8 12 8 C12 9.32 12 10.64 12 12 C9.03 12 6.06 12 3 12 C3.33 13.32 3.66 14.64 4 16 C4.845625 15.484375 5.69125 14.96875 6.5625 14.4375 C10.72229031 12.69795132 12.69189526 12.74673317 17 14 C20.11905047 16.57660691 21.7181368 18.1544104 23 22 C23.51098811 28.23405492 22.95973819 30.94033453 19 36 C15.10953044 41.00203229 14.27416007 44.83139837 14 51 C12.68 51 11.36 51 10 51 C10.59962105 42.90511578 12.71168429 35.64066124 17.875 29.25 C20.40214245 26.17261577 20.40214245 26.17261577 19.5 22.6875 C18.13393902 19.75981324 18.13393902 19.75981324 15 18 C11.29455413 17.80149397 8.52994613 17.82335129 5 19 C4.67 21.31 4.34 23.62 4 26 C2.68 26 1.36 26 0 26 C0 21.71 0 17.42 0 13 C-2.97 12.67 -5.94 12.34 -9 12 C-9 10.68 -9 9.36 -9 8 C-2.25 7.875 -2.25 7.875 0 9 C0 6.03 0 3.06 0 0 Z "
     fill="#000000"
     transform="translate(23,5)"
     id="path1"
     style="fill:#ffffff" />
</svg>
