<?xml version="1.0" encoding="UTF-8"?>
<svg version="1.1" xmlns="http://www.w3.org/2000/svg" width="55" height="55">
<path d="M0 0 C5.92821326 4.26694813 10.2193859 9.34348101 12.03515625 16.46484375 C12.97641203 25.89929118 12.50016185 33.00515868 6.45703125 40.39453125 C0.61062729 46.74130311 -5.67542685 48.97564731 -14.1953125 49.5234375 C-21.89064621 49.36063072 -28.58780428 45.88874196 -33.96484375 40.46484375 C-38.64089772 33.88587948 -40.61813687 27.56567848 -39.96484375 19.46484375 C-37.69881083 9.80894552 -33.14541801 3.78041128 -24.83984375 -1.53515625 C-17.17807917 -4.22380299 -7.1846482 -3.77361896 0 0 Z M-32.46484375 7.96484375 C-36.4978711 13.2361809 -38.45822749 18.97740117 -37.71875 25.703125 C-36.12025748 34.11996615 -31.7918424 39.49553181 -24.96484375 44.46484375 C-18.95770235 47.61859299 -12.72765777 47.98283339 -6.234375 46.3125 C1.06439216 43.58645443 5.63355224 38.31184924 9.03515625 31.46484375 C11.19955249 24.97165503 10.84978849 18.386093 8.03515625 12.15234375 C4.4049467 5.6654068 -0.98542609 1.82661938 -7.96484375 -0.53515625 C-17.59546307 -1.94054617 -25.88847138 0.68784091 -32.46484375 7.96484375 Z " fill="#000000" transform="translate(40.96484375,4.53515625)"/>
<path d="M0 0 C1.32 0 2.64 0 4 0 C4 1.32 4 2.64 4 4 C2.68 3.67 1.36 3.34 0 3 C0 2.01 0 1.02 0 0 Z " fill="#000000" transform="translate(25,26)"/>
</svg>
