<?xml version="1.0" encoding="UTF-8"?>
<svg version="1.1" xmlns="http://www.w3.org/2000/svg" width="60" height="60">
<path d="M0 0 C3.94830496 2.2348896 5.4069234 3.75895453 7.3125 7.875 C7.98656067 12.21809546 7.82081274 15.70588069 6.0625 19.75 C2.86647575 23.63088659 0.31625033 25.18003468 -4.6875 25.875 C-4.666875 26.968125 -4.64625 28.06125 -4.625 29.1875 C-4.6875 32.875 -4.6875 32.875 -5.6875 35.875 C-1.7275 35.875 2.2325 35.875 6.3125 35.875 C6.3125 37.195 6.3125 38.515 6.3125 39.875 C2.3525 39.545 -1.6075 39.215 -5.6875 38.875 C-5.3575 39.865 -5.0275 40.855 -4.6875 41.875 C-4.62009135 43.43618428 -4.60235544 45.0000252 -4.625 46.5625 C-4.63402344 47.37074219 -4.64304687 48.17898437 -4.65234375 49.01171875 C-4.66394531 49.62660156 -4.67554687 50.24148437 -4.6875 50.875 C-6.0075 50.875 -7.3275 50.875 -8.6875 50.875 C-8.6875 46.915 -8.6875 42.955 -8.6875 38.875 C-14.1325 39.37 -14.1325 39.37 -19.6875 39.875 C-19.6875 38.555 -19.6875 37.235 -19.6875 35.875 C-16.0575 35.875 -12.4275 35.875 -8.6875 35.875 C-8.6875 32.575 -8.6875 29.275 -8.6875 25.875 C-9.739375 25.7821875 -9.739375 25.7821875 -10.8125 25.6875 C-14.61087071 24.61404741 -17.25675099 22.94618588 -19.6875 19.875 C-21.73245703 15.28673506 -21.97346996 11.90112749 -20.625 7.0625 C-15.70724515 -1.02799992 -8.86686898 -2.70514647 0 0 Z M-15.6875 4.875 C-17.33236907 8.50771084 -18.07957242 11.96593709 -17.26953125 15.91015625 C-15.86774811 19.55789029 -14.23413745 22.20019898 -10.6875 23.875 C-6.2964754 24.44420689 -4.20977617 24.16515343 -0.3125 22 C2.41608819 19.7911429 3.15861612 19.0972777 3.5859375 15.703125 C3.83056826 9.65351413 3.83056826 9.65351413 1.3125 4.3125 C-1.88101214 1.71777139 -3.65462143 0.83939336 -7.69140625 0.65625 C-11.37829035 1.06029209 -13.09083897 2.27833897 -15.6875 4.875 Z " fill="#000000" transform="translate(36.6875,5.125)"/>
</svg>
